#!OML:ASF F:\VICON\USERDATA\INSTALL\rory3\rory3.ASF
:FULLY-SPECIFIED
:DEGREES
281
root 4.76224 17.022 2.37361 16.0429 -6.96617 -8.08884
lowerback 4.48051 -0.573193 4.11237
upperback -0.856646 -0.450836 2.47347
thorax -3.41237 -0.282534 0.279011
lowerneck -14.2343 -1.64728 -2.05973
upperneck 39.0367 -2.06057 0.0755461
head 16.4236 -1.21205 0.0188025
rclavicle 3.67752e-015 3.97569e-016
rhumerus 4.03329 23.613 -38.5083
rradius 75.7386
rwrist -3.71054
rhand -11.9903 -42.5966
rfingers 7.12502
rthumb 14.0663 -72.1006
lclavicle 3.67752e-015 3.97569e-016
lhumerus 23.2978 -7.10344 25.8295
lradius 37.1019
lwrist 30.6977
lhand -20.145 -22.091
lfingers 7.12502
lthumb 6.19988 7.7983
rfemur -51.6612 3.98534 10.6198
rtibia 74.5859
rfoot 27.1532 -10.9441
rtoes -10.3126
lfemur -36.7816 -1.51223 -20.3295
ltibia 42.2076
lfoot -18.7575 7.12203
ltoes 13.0763
282
root 4.76606 17.0253 2.37262 16.0899 -6.84749 -8.07722
lowerback 4.36633 -0.599276 4.20345
upperback -0.76347 -0.492281 2.45794
thorax -3.2536 -0.301972 0.212831
lowerneck -14.4156 -1.68742 -2.08263
upperneck 39.0499 -2.10902 0.0768486
head 16.4771 -1.23392 0.0128995
rclavicle 1.47101e-014 -3.89618e-014
rhumerus 3.42228 23.6223 -38.9486
rradius 75.4308
rwrist -3.64095
rhand -12.4557 -40.679
rfingers 7.12502
rthumb 13.6179 -70.2136
lclavicle 1.47101e-014 -3.89618e-014
lhumerus 22.9723 -7.18259 26.2938
lradius 37.1067
lwrist 30.4242
lhand -20.1241 -22.0757
lfingers 7.12502
lthumb 6.22003 7.81294
rfemur -52.4645 3.60947 10.9597
rtibia 75.4306
rfoot 27.6582 -10.2072
rtoes -10.3795
lfemur -36.8865 -1.48322 -20.3359
ltibia 42.2323
lfoot -18.8185 6.86743
ltoes 13.3904
283
root 4.76839 17.025 2.37004 16.0901 -6.82935 -8.10059
lowerback 4.35388 -0.609644 4.29492
upperback -0.671802 -0.506477 2.44255
thorax -3.15317 -0.308502 0.145772
lowerneck -14.4949 -1.67742 -2.1174
upperneck 39.0198 -2.08848 0.101475
head 16.4818 -1.22648 0.0330605
rclavicle 1.63997e-014 2.38542e-014
rhumerus 2.93416 23.7208 -39.3179
rradius 75.1123
rwrist -3.58255
rhand -12.6995 -40.3315
rfingers 7.12502
rthumb 13.3829 -69.8816
lclavicle 1.63997e-014 2.38542e-014
lhumerus 22.5461 -7.27557 26.7213
lradius 37.1087
lwrist 30.066
lhand -19.948 -22.5352
lfingers 7.12502
lthumb 6.39003 7.34842
rfemur -53.2653 3.38149 11.295
rtibia 76.268
rfoot 28.1685 -10.1454
rtoes -9.81336
lfemur -36.8808 -1.33957 -20.3443
ltibia 42.2261
lfoot -18.8308 6.7102
ltoes 13.2038
284
root 4.77037 17.0245 2.36578 16.0281 -6.84388 -8.13937
lowerback 4.50715 -0.6362 4.35428
upperback -0.625208 -0.530874 2.44158
thorax -3.19268 -0.3218 0.114743
lowerneck -14.3945 -1.61461 -2.09582
upperneck 38.921 -1.97543 0.0389145
head 16.4012 -1.18576 0.0235309
rclavicle 2.44505e-014 -4.41302e-014
rhumerus 2.38553 23.9226 -39.7145
rradius 74.9428
rwrist -3.31832
rhand -12.9372 -40.5145
rfingers 7.12502
rthumb 13.1537 -70.0796
lclavicle 2.44505e-014 -4.41302e-014
lhumerus 22.1224 -7.31394 27.2227
lradius 36.968
lwrist 29.6814
lhand -19.8055 -22.9829
lfingers 7.12502
lthumb 6.52759 6.89646
rfemur -53.9635 3.16632 11.6436
rtibia 77.0924
rfoot 28.5539 -10.0895
rtoes -9.77135
lfemur -36.7898 -1.16823 -20.3429
ltibia 42.2075
lfoot -18.8033 6.59417
ltoes 12.7764
285
root 4.77404 17.0259 2.36501 15.9136 -6.75176 -8.10232
lowerback 4.65235 -0.703445 4.371
upperback -0.586931 -0.611925 2.43855
thorax -3.23757 -0.362663 0.10972
lowerneck -14.242 -1.57698 -2.04544
upperneck 38.8309 -1.8823 -0.0993686
head 16.3116 -1.15976 -0.0274991
rclavicle 3.1408e-014 -9.14409e-015
rhumerus 1.88733 24.2315 -40.0341
rradius 74.6873
rwrist -2.97519
rhand -12.9178 -40.9725
rfingers 7.12502
rthumb 13.1724 -70.5364
lclavicle 3.1408e-014 -9.14409e-015
lhumerus 21.7444 -7.44399 27.753
lradius 36.7578
lwrist 29.4668
lhand -19.8317 -22.6809
lfingers 7.12502
lthumb 6.50234 7.19924
rfemur -54.558 2.77549 11.9448
rtibia 77.9248
rfoot 28.646 -9.37189
rtoes -9.96735
lfemur -36.6475 -1.0435 -20.409
ltibia 42.189
lfoot -18.8552 6.34741
ltoes 12.7844
286
root 4.77461 17.0197 2.368 15.7871 -6.70834 -7.89808
lowerback 4.68411 -0.762995 4.19562
upperback -0.545285 -0.702374 2.39814
thorax -3.21313 -0.404036 0.172594
lowerneck -14.0492 -1.58197 -2.15696
upperneck 38.787 -1.88353 -0.0398969
head 16.2436 -1.16963 0.0204202
rclavicle 3.06128e-014 -1.66979e-014
rhumerus 1.49436 24.5385 -40.3717
rradius 74.2627
rwrist -2.54876
rhand -13.1157 -40.8616
rfingers 7.12502
rthumb 12.9816 -70.4377
lclavicle 3.06128e-014 -1.66979e-014
lhumerus 21.1981 -7.84591 28.1123
lradius 36.7457
lwrist 29.5005
lhand -19.8122 -22.0628
lfingers 7.12502
lthumb 6.5211 7.81677
rfemur -55.2523 2.39806 12.0381
rtibia 78.8051
rfoot 28.8109 -8.63033
rtoes -9.60149
lfemur -36.5072 -0.745307 -20.7094
ltibia 42.1574
lfoot -18.8535 5.97085
ltoes 12.6639
287
root 4.77616 17.0171 2.37243 15.7074 -6.78914 -7.8469
lowerback 4.69 -0.758945 4.14612
upperback -0.498127 -0.702469 2.36671
thorax -3.1673 -0.402373 0.167275
lowerneck -13.9493 -1.5758 -2.21853
upperneck 38.8069 -1.89 0.0391562
head 16.2315 -1.17137 0.0656062
rclavicle -4.96962e-015 5.56597e-015
rhumerus 1.07874 24.7497 -40.8243
rradius 73.7839
rwrist -2.10407
rhand -13.4697 -40.7624
rfingers 7.12502
rthumb 12.6404 -70.36
lclavicle -4.96962e-015 5.56597e-015
lhumerus 20.6566 -8.26334 28.3927
lradius 36.8335
lwrist 29.5394
lhand -19.4511 -22.0874
lfingers 7.12502
lthumb 6.86972 7.78112
rfemur -55.9764 2.1944 12.2555
rtibia 79.6228
rfoot 29.2278 -8.13359
rtoes -9.48734
lfemur -36.4143 -0.298489 -20.8783
ltibia 42.1118
lfoot -18.8188 5.59886
ltoes 12.6319
288
root 4.78134 17.025 2.37759 15.6654 -6.81853 -7.9071
lowerback 4.70832 -0.755824 4.23341
upperback -0.443354 -0.694725 2.36203
thorax -3.12195 -0.398882 0.112737
lowerneck -14.047 -1.55967 -2.17301
upperneck 38.9185 -1.87114 0.0182034
head 16.3129 -1.16004 0.0498003
rclavicle -1.39149e-014 2.06736e-014
rhumerus 0.517942 24.8789 -41.292
rradius 73.4678
rwrist -1.76024
rhand -13.2569 -41.2346
rfingers 7.12502
rthumb 12.8455 -70.8193
lclavicle -1.39149e-014 2.06736e-014
lhumerus 20.3466 -8.58672 28.7059
lradius 36.7649
lwrist 29.575
lhand -19.1875 -22.762
lfingers 7.12502
lthumb 7.12418 7.09805
rfemur -56.6184 1.94154 12.6129
rtibia 80.3574
rfoot 29.4595 -7.54788
rtoes -9.9877
lfemur -36.3234 -0.0163585 -20.8813
ltibia 42.0561
lfoot -18.8735 5.31977
ltoes 13.0435
289
root 4.78371 17.0248 2.38003 15.5724 -6.74886 -7.7915
lowerback 4.79895 -0.804679 4.14555
upperback -0.369371 -0.762862 2.347
thorax -3.09731 -0.430307 0.151806
lowerneck -14.2712 -1.52751 -2.11763
upperneck 39.0107 -1.80458 -0.0580028
head 16.4146 -1.1344 0.0152765
rclavicle 1.67973e-014 -1.59028e-015
rhumerus -0.133355 24.9558 -41.7334
rradius 73.3232
rwrist -1.44761
rhand -12.9667 -41.2924
rfingers 7.12502
rthumb 13.1253 -70.8593
lclavicle 1.67973e-014 -1.59028e-015
lhumerus 20.1113 -8.90052 29.0125
lradius 36.5707
lwrist 29.6283
lhand -19.0517 -23.8452
lfingers 7.12502
lthumb 7.25521 6.01045
rfemur -57.2614 1.55726 12.8068
rtibia 81.141
rfoot 29.7066 -6.92749
rtoes -10.6327
lfemur -36.1836 0.108111 -21.0404
ltibia 41.9923
lfoot -18.9125 5.1112
ltoes 14.0215
290
root 4.78467 17.019 2.37992 15.4213 -6.73162 -7.68539
lowerback 4.94192 -0.82114 4.06093
upperback -0.260585 -0.786613 2.31306
thorax -3.06504 -0.439469 0.166645
lowerneck -14.4738 -1.50497 -2.10791
upperneck 39.0504 -1.77827 -0.0306674
head 16.4861 -1.11733 0.028086
rclavicle -1.78906e-014 2.3059e-014
rhumerus -0.737009 25.0206 -42.1851
rradius 73.0777
rwrist -1.063
rhand -13.1373 -40.8358
rfingers 7.12502
rthumb 12.9609 -70.4132
lclavicle -1.78906e-014 2.3059e-014
lhumerus 19.7856 -9.11484 29.3911
lradius 36.4863
lwrist 29.5005
lhand -19.0932 -24.5921
lfingers 7.12502
lthumb 7.21518 5.26487
rfemur -57.8855 1.29152 12.9807
rtibia 81.9435
rfoot 30.073 -6.66116
rtoes -10.9202
lfemur -36.0282 0.244244 -21.1959
ltibia 41.9604
lfoot -18.9082 4.98782
ltoes 14.7691
291
root 4.78695 17.0209 2.38197 15.3216 -6.85585 -7.6094
lowerback 5.00521 -0.775765 3.97968
upperback -0.163424 -0.732867 2.25822
thorax -2.99818 -0.41004 0.151055
lowerneck -14.6054 -1.49789 -2.13678
upperneck 39.0631 -1.80321 0.0930939
head 16.5282 -1.11378 0.0822148
rclavicle -1.68967e-014 5.96354e-015
rhumerus -1.27214 25.1125 -42.611
rradius 72.7104
rwrist -0.721022
rhand -13.1599 -40.6417
rfingers 7.12502
rthumb 12.939 -70.2205
lclavicle -1.68967e-014 5.96354e-015
lhumerus 19.4456 -9.40959 29.7559
lradius 36.471
lwrist 29.3829
lhand -19.7585 -24.2784
lfingers 7.12502
lthumb 6.57294 5.5996
rfemur -58.5238 1.18562 13.1177
rtibia 82.6908
rfoot 30.3265 -6.63687
rtoes -10.4838
lfemur -35.9479 0.371614 -21.3306
ltibia 41.9824
lfoot -18.9059 4.98623
ltoes 14.0235
292
root 4.79095 17.0212 2.38202 15.258 -6.92349 -7.76739
lowerback 5.11047 -0.739457 4.16302
upperback -0.0699733 -0.670628 2.2816
thorax -2.96108 -0.380297 0.0684298
lowerneck -14.7542 -1.49177 -2.13495
upperneck 39.0296 -1.79291 0.104601
head 16.5476 -1.10633 0.0878057
rclavicle 5.1684e-014 -7.55382e-015
rhumerus -1.60488 25.2794 -42.8846
rradius 72.1583
rwrist -0.758779
rhand -13.0671 -40.6155
rfingers 7.12502
rthumb 13.0285 -70.1887
lclavicle 5.1684e-014 -7.55382e-015
lhumerus 19.0482 -9.82812 30.0558
lradius 36.5352
lwrist 29.3246
lhand -20.6571 -23.1814
lfingers 7.12502
lthumb 5.70538 6.72178
rfemur -59.1287 1.11513 13.5185
rtibia 83.3925
rfoot 30.53 -6.22999
rtoes -10.0303
lfemur -35.8955 0.457986 -21.1942
ltibia 42.0313
lfoot -18.886 5.03226
ltoes 13.2344
293
root 4.79653 17.0198 2.38078 15.1801 -6.78984 -8.11335
lowerback 5.27864 -0.75164 4.59401
upperback -0.00684087 -0.649893 2.38406
thorax -2.99386 -0.375519 -0.0663533
lowerneck -14.8168 -1.49358 -2.08622
upperneck 38.9949 -1.76997 0.010002
head 16.5425 -1.10177 0.0412315
rclavicle -1.65985e-014 2.38542e-015
rhumerus -1.80909 25.5183 -43.0722
rradius 71.4274
rwrist -1.00577
rhand -13.1105 -40.7911
rfingers 7.12502
rthumb 12.9866 -70.3669
lclavicle -1.65985e-014 2.38542e-015
lhumerus 18.6228 -10.1394 30.5091
lradius 36.539
lwrist 29.0141
lhand -20.8235 -22.8066
lfingers 7.12502
lthumb 5.54474 7.10089
rfemur -59.6188 0.97002 14.1567
rtibia 84.0376
rfoot 30.7205 -5.61261
rtoes -9.91773
lfemur -35.815 0.422431 -20.8139
ltibia 42.0782
lfoot -18.8756 5.05888
ltoes 13.1765
